<?xml version="1.0" standalone="no"?>
<!DOCTYPE svg PUBLIC "-//W3C//DTD SVG 20010904//EN"
 "http://www.w3.org/TR/2001/REC-SVG-20010904/DTD/svg10.dtd">
<svg version="1.0" xmlns="http://www.w3.org/2000/svg"
 width="610.000000pt" height="146.000000pt" viewBox="0 0 610.000000 146.000000"
 preserveAspectRatio="xMidYMid meet">

<g transform="translate(0.000000,146.000000) scale(0.100000,-0.100000)"
fill="#000000" stroke="none">
<path d="M4500 730 l0 -730 755 0 755 0 0 730 0 730 -755 0 -755 0 0 -730z
m833 579 c48 -52 30 -126 -37 -154 -42 -18 -81 -8 -111 27 -31 37 -33 86 -4
122 42 54 104 56 152 5z m131 -421 c72 -207 76 -223 60 -235 -20 -15 -19 -17
-108 150 -31 59 -61 107 -67 107 -21 0 -5 -55 71 -235 l79 -190 -77 -5 -77 -5
-25 -180 -25 -180 -36 -3 -36 -3 -22 163 c-12 90 -24 173 -27 186 -4 20 -10
22 -80 22 -57 0 -75 3 -71 13 2 6 39 95 81 196 73 174 84 211 61 213 -8 0
-130 -211 -149 -257 -2 -6 -12 -2 -21 7 -19 18 -16 29 117 401 l21 57 127 0
127 0 77 -222z"/>
<path d="M1137 1076 c-76 -28 -121 -90 -140 -192 -11 -60 -15 -69 -37 -74 -36
-9 -38 -38 -3 -42 l28 -3 3 -153 c3 -152 -4 -192 -32 -192 -12 0 -32 -30 -24
-34 2 -1 51 0 110 2 80 3 108 7 112 18 4 11 -4 14 -33 14 -67 0 -72 14 -69
191 l3 154 60 3 c54 3 74 12 75 35 0 4 -29 7 -65 7 l-65 0 0 63 c1 126 54 182
148 158 76 -20 84 -19 95 12 5 16 7 30 5 32 -13 13 -137 14 -171 1z"/>
<path d="M170 991 c-79 -26 -123 -67 -140 -132 -20 -74 28 -135 160 -205 100
-52 130 -82 130 -131 -1 -41 -11 -59 -50 -86 -32 -22 -137 -23 -167 -2 -23 16
-43 70 -43 118 0 20 -5 27 -20 27 -18 0 -20 -7 -20 -88 l0 -89 39 -11 c54 -17
159 -15 214 4 88 30 144 127 116 201 -15 39 -59 73 -201 154 -145 83 -123 199
39 199 55 0 64 -3 82 -26 14 -18 21 -41 21 -70 0 -32 4 -44 14 -44 21 0 23 6
31 91 6 68 5 77 -12 84 -28 11 -165 16 -193 6z"/>
<path d="M1968 992 c-90 -2 -98 -4 -98 -22 0 -15 7 -20 29 -20 17 0 31 -6 35
-16 3 -9 6 -113 6 -232 0 -235 -4 -257 -53 -280 -15 -7 -27 -20 -27 -29 0 -13
9 -15 53 -9 28 3 78 6 110 6 49 0 57 3 57 19 0 14 -5 18 -19 14 -10 -3 -29 0
-40 7 -20 10 -21 17 -19 123 l3 112 153 3 152 3 0 -100 c0 -55 -3 -107 -6
-116 -4 -8 -22 -22 -40 -30 -58 -24 -39 -34 76 -37 84 -2 111 0 115 10 9 25 5
29 -24 24 -23 -3 -33 1 -46 21 -14 23 -16 47 -11 189 4 90 9 196 12 237 6 70
7 74 35 84 18 7 29 19 29 30 0 13 -5 17 -16 13 -9 -3 -53 -6 -99 -6 -73 0 -83
-2 -88 -19 -4 -16 1 -20 27 -23 l31 -3 3 -112 3 -111 -83 -7 c-116 -9 -223 -3
-222 13 1 6 2 53 3 102 1 73 4 93 20 109 10 10 24 20 31 23 7 2 11 10 9 18 -3
12 -23 14 -101 12z"/>
<path d="M563 790 c-49 -24 -60 -34 -56 -50 5 -18 6 -18 46 3 56 29 113 29
138 -1 23 -29 36 -111 19 -122 -7 -4 -51 -18 -99 -30 -47 -12 -92 -27 -100
-33 -62 -50 -4 -177 82 -177 13 0 44 16 68 35 50 40 59 42 59 17 0 -54 80 -69
123 -24 35 36 36 56 3 41 -14 -7 -37 -8 -52 -5 l-27 7 8 140 c8 157 1 190 -46
214 -44 23 -99 18 -166 -15z m125 -322 c-52 -41 -115 -33 -132 15 -15 42 2 59
80 83 l69 20 3 -50 c3 -42 0 -53 -20 -68z"/>
<path d="M1334 794 c-48 -33 -59 -46 -89 -109 -93 -190 81 -375 260 -277 46
25 61 52 25 44 -62 -14 -140 -13 -167 2 -37 19 -73 87 -73 139 l0 37 130 0
c118 0 130 2 140 19 23 44 -4 127 -49 154 -46 27 -130 23 -177 -9z m137 -35
c14 -14 19 -30 17 -52 l-3 -32 -95 -7 c-52 -3 -97 -5 -99 -2 -9 9 24 66 51 89
38 32 99 34 129 4z"/>
<path d="M2617 789 c-42 -22 -57 -34 -53 -45 3 -9 6 -17 6 -19 0 -3 15 4 33
15 17 10 49 22 69 25 33 6 41 3 68 -24 27 -27 31 -36 28 -77 l-3 -47 -99 -27
c-59 -17 -105 -36 -113 -46 -30 -41 -5 -122 47 -149 45 -23 73 -18 119 22 34
29 45 33 52 22 5 -8 9 -17 9 -21 0 -17 34 -38 60 -38 27 0 90 49 90 71 0 12
-17 12 -25 -1 -3 -5 -19 -10 -35 -10 -46 0 -52 23 -39 151 13 136 8 170 -32
203 -43 37 -105 35 -182 -5z m128 -316 c-60 -52 -128 -37 -133 29 l-3 37 78
24 78 24 3 -46 c3 -39 -1 -49 -23 -68z"/>
<path d="M2993 813 c-56 -3 -73 -7 -73 -18 0 -8 5 -15 12 -15 29 0 52 -46 108
-220 54 -168 62 -188 80 -183 28 7 31 13 95 168 72 176 100 231 120 238 8 4
15 11 15 17 0 14 -169 9 -173 -5 -1 -5 15 -11 36 -13 50 -4 49 -15 -15 -176
-57 -145 -56 -142 -64 -133 -8 7 -70 219 -79 270 -7 35 -6 37 24 43 36 7 43
35 9 32 -13 -1 -56 -4 -95 -5z"/>
<path d="M3475 788 c-137 -93 -139 -320 -5 -388 56 -29 123 -26 185 8 46 25
61 51 25 44 -75 -14 -139 -13 -169 2 -38 20 -70 83 -71 139 l0 37 130 0 c121
0 130 1 141 21 11 22 6 73 -12 113 -17 36 -61 56 -122 56 -45 0 -63 -6 -102
-32z m142 -30 c25 -23 32 -76 11 -82 -7 -3 -53 -7 -101 -10 l-89 -5 6 27 c4
15 22 42 41 60 43 40 96 44 132 10z"/>
<path d="M3848 808 c-55 -12 -61 -29 -18 -45 l31 -11 -3 -159 c-3 -153 -4
-158 -25 -168 -13 -5 -23 -17 -23 -26 0 -14 13 -16 83 -15 75 1 96 7 97 29 0
4 -10 7 -23 7 -48 0 -55 35 -40 218 l6 83 38 20 c56 28 112 25 138 -7 19 -24
21 -40 21 -153 0 -114 -2 -129 -20 -149 -12 -12 -25 -22 -30 -22 -6 0 -10 -6
-10 -14 0 -11 18 -14 90 -13 76 2 90 5 90 18 0 10 -12 19 -31 23 l-31 6 4 166
3 166 -33 29 c-47 42 -100 40 -176 -6 l-58 -35 4 35 c5 40 1 41 -84 23z"/>
</g>
</svg>
